<?xml version="1.0" encoding="UTF-8"?>
<svg width="16px" height="16px" viewBox="0 0 16 16" version="1.1" xmlns="http://www.w3.org/2000/svg" xmlns:xlink="http://www.w3.org/1999/xlink">
    <!-- Generator: Sketch 50.2 (55047) - http://www.bohemiancoding.com/sketch -->
    <title>check</title>
    <desc>Created with Sketch.</desc>
    <defs></defs>
    <g id="Page-1" stroke="none" stroke-width="1" fill="none" fill-rule="evenodd">
        <g id="check" transform="translate(-4.000000, -4.000000)">
            <polygon id="Shape" points="0 0 24 0 24 24 0 24"></polygon>
            <g id="Shape" transform="translate(4.000000, 4.000000)" fill="#FFFFFF" fill-rule="nonzero">
                <path d="M8,0 C3.58170968,0 0,3.58170968 0,8 C0,12.4182903 3.58170968,16 8,16 C12.4182903,16 16,12.4182903 16,8 C16,3.58170968 12.4182903,0 8,0 Z M8,14.9677419 C4.17212903,14.9677419 1.03225806,11.8691935 1.03225806,8 C1.03225806,4.17216129 4.13080645,1.03225806 8,1.03225806 C11.827871,1.03225806 14.9677419,4.13080645 14.9677419,8 C14.9677419,11.8278387 11.8691935,14.9677419 8,14.9677419 Z M12.5687097,6.0980323 L6.7467742,11.8732581 C6.595,12.0238065 6.3499032,12.0228387 6.1993548,11.8710645 L3.42909677,9.0784194 C3.27854839,8.9266452 3.27951613,8.6815484 3.43129032,8.531 L3.70612903,8.2583871 C3.85790323,8.1078387 4.103,8.1088065 4.25354839,8.2605806 L6.4785806,10.5035806 L11.750871,5.27358065 C11.9026452,5.12303226 12.1477419,5.124 12.2982903,5.27577419 L12.5709032,5.5506129 C12.7214839,5.7023871 12.7204839,5.94748387 12.5687097,6.0980323 Z" id="path-1"></path>
            </g>
        </g>
    </g>
</svg>