<?xml version="1.0" encoding="UTF-8"?>
<svg viewBox="0 0 32 32" version="1.1" xmlns="http://www.w3.org/2000/svg" xmlns:xlink="http://www.w3.org/1999/xlink">
    <defs></defs>
    <path fill="#00A160" d="M16 6.71c5.102 0 9.29 4.132 9.29 9.29 0 5.131-4.155 9.29-9.29 9.29-5.129 0-9.29-4.153-9.29-9.29 0-5.127 4.155-9.29 9.29-9.29zM16 5.333c-5.891 0-10.667 4.778-10.667 10.667 0 5.892 4.776 10.667 10.667 10.667s10.667-4.774 10.667-10.667c0-5.889-4.776-10.667-10.667-10.667zM14.452 20.129h0.516v-5.161h-0.516c-0.285 0-0.516-0.231-0.516-0.516v-0.344c0-0.285 0.231-0.516 0.516-0.516h2.065c0.285 0 0.516 0.231 0.516 0.516v6.021h0.516c0.285 0 0.516 0.231 0.516 0.516v0.344c0 0.285-0.231 0.516-0.516 0.516h-3.097c-0.285 0-0.516-0.231-0.516-0.516v-0.344c0-0.285 0.231-0.516 0.516-0.516zM16 9.806c-0.76 0-1.376 0.616-1.376 1.376s0.616 1.376 1.376 1.376c0.76 0 1.376-0.616 1.376-1.376s-0.616-1.376-1.376-1.376z"></path>
</svg>