<?xml version="1.0" encoding="UTF-8"?>
<svg width="16px" height="16px" viewBox="0 0 16 16" version="1.1" xmlns="http://www.w3.org/2000/svg" xmlns:xlink="http://www.w3.org/1999/xlink">
    <!-- Generator: Sketch 50.2 (55047) - http://www.bohemiancoding.com/sketch -->
    <title>times-circle</title>
    <desc>Created with Sketch.</desc>
    <defs></defs>
    <g id="Page-1" stroke="none" stroke-width="1" fill="none" fill-rule="evenodd">
        <g id="times-circle" transform="translate(-4.000000, -4.000000)" fill="#AAAAAA" fill-rule="nonzero">
            <g id="Shape" transform="translate(12.000000, 12.000000) rotate(45.000000) translate(-12.000000, -12.000000) translate(4.000000, 4.000000)">
                <path d="M12.1290323,7.8064516 L12.1290323,8.1935484 C12.1290323,8.4064516 11.9548387,8.5806452 11.7419355,8.5806452 L8.5806452,8.5806452 L8.5806452,11.7419355 C8.5806452,11.9548387 8.4064516,12.1290323 8.1935484,12.1290323 L7.8064516,12.1290323 C7.5935484,12.1290323 7.4193548,11.9548387 7.4193548,11.7419355 L7.4193548,8.5806452 L4.25806452,8.5806452 C4.04516129,8.5806452 3.87096774,8.4064516 3.87096774,8.1935484 L3.87096774,7.8064516 C3.87096774,7.5935484 4.04516129,7.4193548 4.25806452,7.4193548 L7.4193548,7.4193548 L7.4193548,4.25806452 C7.4193548,4.04516129 7.5935484,3.87096774 7.8064516,3.87096774 L8.1935484,3.87096774 C8.4064516,3.87096774 8.5806452,4.04516129 8.5806452,4.25806452 L8.5806452,7.4193548 L11.7419355,7.4193548 C11.9548387,7.4193548 12.1290323,7.5935484 12.1290323,7.8064516 Z M16,8 C16,12.4193548 12.4193548,16 8,16 C3.58064516,16 0,12.4193548 0,8 C0,3.58064516 3.58064516,0 8,0 C12.4193548,0 16,3.58064516 16,8 Z M14.9677419,8 C14.9677419,4.13225806 11.8290323,1.03225806 8,1.03225806 C4.13225806,1.03225806 1.03225806,4.17096774 1.03225806,8 C1.03225806,11.8677419 4.17096774,14.9677419 8,14.9677419 C11.8677419,14.9677419 14.9677419,11.8290323 14.9677419,8 Z" id="path-1"></path>
            </g>
        </g>
    </g>
</svg>