<?xml version="1.0" encoding="UTF-8"?>
<svg width="48px" height="48px" viewBox="0 0 48 48" version="1.1" xmlns="http://www.w3.org/2000/svg" xmlns:xlink="http://www.w3.org/1999/xlink">
    <title>Aankoopverzekering</title>
    <defs>
        <polygon id="path-1" points="0 48 48 48 48 0 0 0"></polygon>
    </defs>
    <g id="Pakketten" stroke="none" stroke-width="1" fill="none" fill-rule="evenodd">
        <g id="-" transform="translate(-239.000000, -1.000000)">
            <g id="Aankoopverzekering" transform="translate(239.000000, 1.000000)">
                <path d="M5.0108,9.4123 C5.1328,12.6353 6.6058,33.8363 23.9998,42.8783 C41.3368,33.8623 42.8568,12.5933 42.9878,9.1833 C35.3558,3.0723 24.1148,3.0003 23.9998,3.0003 C23.8758,3.0003 11.7018,3.0853 5.0108,9.4123 M23.9998,45.0003 C23.8468,45.0003 23.6938,44.9653 23.5528,44.8943 C3.2358,34.7353 2.9998,9.2563 2.9998,9.0003 C2.9998,8.7343 3.1058,8.4803 3.2928,8.2933 C10.5028,1.0833 23.4518,1.0003 23.9998,1.0003 C24.5048,1.0003 36.4578,1.0793 44.6438,7.9543 C44.8688,8.1433 44.9998,8.4243 44.9998,8.7203 C44.9998,8.9783 44.7648,34.7353 24.4478,44.8943 C24.3068,44.9653 24.1538,45.0003 23.9998,45.0003" id="Fill-1" fill="#00A160"></path>
                <path d="M23.4453,39.8322 C8.1753,29.6522 8.0003,11.7572 8.0003,11.0002 C8.0003,10.7342 8.1053,10.4802 8.2933,10.2932 C13.0113,5.5742 23.5073,5.0222 23.9523,5.0012 L24.0483,6.9992 C23.9493,7.0042 14.3493,7.5112 10.0133,11.4172 C10.1403,14.1332 11.4383,29.4242 24.5543,38.1682 L23.4453,39.8322 Z" id="Fill-3" fill="#00A160"></path>
                <path d="M24,6.0002 C24,6.0002 34.5,6.5002 39,11.0002 C39,11.0002 39,29.0002 24,39.0002" id="Fill-5" fill="#D1D81E"></path>
                <path d="M24.5547,39.8322 L23.4457,38.1682 C36.5867,29.4072 37.8647,14.1322 37.9877,11.4172 C33.6507,7.5112 24.0507,7.0042 23.9517,6.9992 L24.0477,5.0012 C24.4927,5.0222 34.9887,5.5742 39.7067,10.2932 C39.8947,10.4802 39.9997,10.7342 39.9997,11.0002 C39.9997,11.7572 39.8247,29.6522 24.5547,39.8322" id="Fill-7" fill="#00A160"></path>
                <mask id="mask-2" fill="white">
                    <use xlink:href="#path-1"></use>
                </mask>
                <g id="Clip-10"></g>
                <polygon id="Fill-9" fill="#00A160" mask="url(#mask-2)" points="23 44 25 44 25 2 23 2"></polygon>
                <polygon id="Fill-11" mask="url(#mask-2)" points="0 48 48 48 48 0 0 0"></polygon>
            </g>
        </g>
    </g>
</svg>