<?xml version="1.0" encoding="UTF-8"?>
<svg width="48px" height="48px" viewBox="0 0 48 48" version="1.1" xmlns="http://www.w3.org/2000/svg" xmlns:xlink="http://www.w3.org/1999/xlink">
    <title>reisverzekering</title>
    <defs>
        <polygon id="path-1" points="0 48 48 48 48 0 0 0"></polygon>
    </defs>
    <g id="Pakketten" stroke="none" stroke-width="1" fill="none" fill-rule="evenodd">
        <g id="-" transform="translate(-319.000000, -1.000000)">
            <g id="reisverzekering" transform="translate(319.000000, 1.000000)">
                <polygon id="Fill-3" points="0 48 48 48 48 0 0 0"></polygon>
                <path d="M24.0002,3.0002 C35.5982,3.0002 45.0002,12.4012 45.0002,24.0002 C45.0002,35.5982 35.5982,45.0002 24.0002,45.0002" id="Fill-5" fill="#D1D81E"></path>
                <path d="M24.0002,4.0002 C12.9722,4.0002 4.0002,12.9722 4.0002,24.0002 C4.0002,35.0282 12.9722,44.0002 24.0002,44.0002 C35.0282,44.0002 44.0002,35.0282 44.0002,24.0002 C44.0002,12.9722 35.0282,4.0002 24.0002,4.0002 M24.0002,46.0002 C11.8692,46.0002 2.0002,36.1312 2.0002,24.0002 C2.0002,11.8692 11.8692,2.0002 24.0002,2.0002 C36.1312,2.0002 46.0002,11.8692 46.0002,24.0002 C46.0002,36.1312 36.1312,46.0002 24.0002,46.0002" id="Fill-7" fill="#00A160"></path>
                <mask id="mask-2" fill="white">
                    <use xlink:href="#path-1"></use>
                </mask>
                <g id="Clip-10"></g>
                <polygon id="Fill-9" fill="#00A160" mask="url(#mask-2)" points="23 45 25 45 25 3 23 3"></polygon>
                <polygon id="Fill-11" fill="#00A160" mask="url(#mask-2)" points="3 24.994 45 24.994 45 22.994 3 22.994"></polygon>
                <path d="M24.0002,4.0002 C19.1212,4.0002 15.0002,13.1592 15.0002,24.0002 C15.0002,34.8412 19.1212,44.0002 24.0002,44.0002 C28.8792,44.0002 33.0002,34.8412 33.0002,24.0002 C33.0002,13.1592 28.8792,4.0002 24.0002,4.0002 M24.0002,46.0002 C17.8322,46.0002 13.0002,36.3372 13.0002,24.0002 C13.0002,11.6632 17.8322,2.0002 24.0002,2.0002 C30.1682,2.0002 35.0002,11.6632 35.0002,24.0002 C35.0002,36.3372 30.1682,46.0002 24.0002,46.0002" id="Fill-12" fill="#00A160" mask="url(#mask-2)"></path>
                <path d="M24.0002,14.0002 C17.9082,14.0002 12.2602,12.8152 8.0962,10.6642 L9.0142,8.8872 C12.8432,10.8652 18.3052,12.0002 24.0002,12.0002 C29.6942,12.0002 35.1572,10.8652 38.9872,8.8872 L39.9052,10.6642 C35.7402,12.8152 30.0922,14.0002 24.0002,14.0002" id="Fill-13" fill="#00A160" mask="url(#mask-2)"></path>
                <path d="M38.9865,39.1135 C35.1575,37.1345 29.6955,36.0005 24.0005,36.0005 C18.3045,36.0005 12.8425,37.1345 9.0135,39.1135 L8.0955,37.3365 C12.2595,35.1845 17.9085,34.0005 24.0005,34.0005 C30.0915,34.0005 35.7405,35.1845 39.9045,37.3365 L38.9865,39.1135 Z" id="Fill-14" fill="#00A160" mask="url(#mask-2)"></path>
            </g>
        </g>
    </g>
</svg>