<?xml version="1.0" encoding="UTF-8"?>
<svg width="48px" height="48px" viewBox="0 0 48 48" version="1.1" xmlns="http://www.w3.org/2000/svg" xmlns:xlink="http://www.w3.org/1999/xlink">
    <title>verlengde garantie</title>
    <defs>
        <polygon id="path-1" points="0 48 48 48 48 0 0 0"></polygon>
        <polygon id="path-3" points="-0.0001 0 21.9999 0 21.9999 21.9998 -0.0001 21.9998"></polygon>
    </defs>
    <g id="Pakketten" stroke="none" stroke-width="1" fill="none" fill-rule="evenodd">
        <g id="-" transform="translate(-502.000000, -1.000000)">
            <g id="verlengde-garantie" transform="translate(502.000000, 1.000000)">
                <mask id="mask-2" fill="white">
                    <use xlink:href="#path-1"></use>
                </mask>
                <g id="Clip-21"></g>
                <g id="Group-2" mask="url(#mask-2)">
                    <g transform="translate(1.000000, 1.000000)">
                        <polygon id="Fill-1" fill="#D1D81E" points="34.0001 1.0002 34.0001 8.9992 26.0001 8.9992 26.0001 13.0002 34.0001 13.0002 34.0001 21.0002 38.0001 21.0002 38.0001 13.0002 46.0001 13.0002 46.0001 8.9992 38.0001 8.9992 38.0001 1.0002"></polygon>
                        <g id="Group-4" stroke-width="1" fill="none" transform="translate(25.000000, 0.000000)">
                            <mask id="mask-4" fill="white">
                                <use xlink:href="#path-3"></use>
                            </mask>
                            <g id="Clip-3"></g>
                            <path d="M9.9999,19.9998 L11.9999,19.9998 L11.9999,12.9998 C11.9999,12.4468 12.4469,11.9998 12.9999,11.9998 L19.9999,11.9998 L19.9999,9.9998 L12.9999,9.9998 C12.4469,9.9998 11.9999,9.5528 11.9999,8.9998 L11.9999,1.9998 L9.9999,1.9998 L9.9999,8.9998 C9.9999,9.5528 9.5529,9.9998 8.9999,9.9998 L1.9999,9.9998 L1.9999,11.9998 L8.9999,11.9998 C9.5529,11.9998 9.9999,12.4468 9.9999,12.9998 L9.9999,19.9998 Z M12.9999,21.9998 L8.9999,21.9998 C8.4469,21.9998 7.9999,21.5528 7.9999,20.9998 L7.9999,13.9998 L0.9999,13.9998 C0.4469,13.9998 -0.0001,13.5528 -0.0001,12.9998 L-0.0001,8.9998 C-0.0001,8.4468 0.4469,7.9998 0.9999,7.9998 L7.9999,7.9998 L7.9999,0.9998 C7.9999,0.4468 8.4469,-0.0002 8.9999,-0.0002 L12.9999,-0.0002 C13.5529,-0.0002 13.9999,0.4468 13.9999,0.9998 L13.9999,7.9998 L20.9999,7.9998 C21.5529,7.9998 21.9999,8.4468 21.9999,8.9998 L21.9999,12.9998 C21.9999,13.5528 21.5529,13.9998 20.9999,13.9998 L13.9999,13.9998 L13.9999,20.9998 C13.9999,21.5528 13.5529,21.9998 12.9999,21.9998 L12.9999,21.9998 Z" id="Fill-2" fill="#00A160" mask="url(#mask-4)"></path>
                        </g>
                        <g id="Group-9" stroke-width="1" fill="none" transform="translate(0.000000, 16.000000)" stroke-linejoin="round">
                            <polygon id="Stroke-5" stroke="#00A160" stroke-width="2" points="15.9999 -0.0002 31.1129 15.4428 15.5569 30.9998 -0.0001 15.9078 -0.0001 -0.0002"></polygon>
                            <path d="M9.9999,7.4998 C9.9999,8.8808 8.8809,9.9998 7.4999,9.9998 C6.1189,9.9998 4.9999,8.8808 4.9999,7.4998 C4.9999,6.1188 6.1189,4.9998 7.4999,4.9998 C8.8809,4.9998 9.9999,6.1188 9.9999,7.4998 Z" id="Stroke-7" stroke="#00A160" stroke-width="2"></path>
                        </g>
                    </g>
                </g>
            </g>
        </g>
    </g>
</svg>